<svg width="65" height="64" viewBox="0 0 65 64" fill="none" xmlns="http://www.w3.org/2000/svg">
<path d="M36.53 36.25C35.3633 37.4167 33.9467 38 32.28 38C30.6133 38 29.1967 37.4167 28.03 36.25C26.8633 35.0833 26.28 33.6667 26.28 32C26.28 30.3333 26.8633 28.9167 28.03 27.75C29.1967 26.5833 30.6133 26 32.28 26C33.9467 26 35.3633 26.5833 36.53 27.75C37.6967 28.9167 38.28 30.3333 38.28 32C38.28 33.6667 37.6967 35.0833 36.53 36.25Z" fill="white"/>
<path fill-rule="evenodd" clip-rule="evenodd" d="M32.28 64C49.9531 64 64.28 49.6731 64.28 32C64.28 14.3269 49.9531 0 32.28 0C14.6069 0 0.279999 14.3269 0.279999 32C0.279999 49.6731 14.6069 64 32.28 64ZM24.48 50.425C26.9133 51.475 29.5133 52 32.28 52H42.28V48H32.28C27.8133 48 24.03 46.45 20.93 43.35C17.83 40.25 16.28 36.4667 16.28 32C16.28 27.5333 17.83 23.75 20.93 20.65C24.03 17.55 27.8133 16 32.28 16C36.7467 16 40.53 17.55 43.63 20.65C46.73 23.75 48.28 27.5333 48.28 32V34.9C48.28 35.7667 47.9967 36.5 47.43 37.1C46.8633 37.7 46.1467 38 45.28 38C44.4133 38 43.6967 37.7 43.13 37.1C42.5633 36.5 42.28 35.7667 42.28 34.9V32C42.28 29.2333 41.305 26.875 39.355 24.925C37.405 22.975 35.0467 22 32.28 22C29.5133 22 27.155 22.975 25.205 24.925C23.255 26.875 22.28 29.2333 22.28 32C22.28 34.7667 23.255 37.125 25.205 39.075C27.155 41.025 29.5133 42 32.28 42C33.6133 42 34.8883 41.7583 36.105 41.275C37.3217 40.7917 38.4133 40.0667 39.38 39.1C40.08 40.0333 40.9467 40.75 41.98 41.25C43.0133 41.75 44.1133 42 45.28 42C47.2467 42 48.905 41.3083 50.255 39.925C51.605 38.5417 52.28 36.8667 52.28 34.9V32C52.28 29.2333 51.755 26.6333 50.705 24.2C49.655 21.7667 48.23 19.65 46.43 17.85C44.63 16.05 42.5133 14.625 40.08 13.575C37.6467 12.525 35.0467 12 32.28 12C29.5133 12 26.9133 12.525 24.48 13.575C22.0467 14.625 19.93 16.05 18.13 17.85C16.33 19.65 14.905 21.7667 13.855 24.2C12.805 26.6333 12.28 29.2333 12.28 32C12.28 34.7667 12.805 37.3667 13.855 39.8C14.905 42.2333 16.33 44.35 18.13 46.15C19.93 47.95 22.0467 49.375 24.48 50.425Z" fill="white"/>
</svg>
