<svg width="66" height="64" viewBox="0 0 66 64" fill="none" xmlns="http://www.w3.org/2000/svg">
<g clip-path="url(#clip0_10_13)">
<path fill-rule="evenodd" clip-rule="evenodd" d="M32.5693 0C14.5593 0 0 14.6667 0 32.8113C0 47.3153 9.32867 59.5927 22.27 63.938C23.888 64.2647 24.4807 63.232 24.4807 62.3633C24.4807 61.6027 24.4273 58.9953 24.4273 56.2787C15.3673 58.2347 13.4807 52.3673 13.4807 52.3673C12.0247 48.5647 9.86733 47.5873 9.86733 47.5873C6.902 45.5773 10.0833 45.5773 10.0833 45.5773C13.3727 45.7947 15.0987 48.9453 15.0987 48.9453C18.01 53.9427 22.7013 52.5307 24.5887 51.6613C24.858 49.5427 25.7213 48.076 26.638 47.2613C19.412 46.5007 11.8093 43.676 11.8093 31.0727C11.8093 27.4873 13.1027 24.554 15.152 22.2727C14.8287 21.458 13.696 18.0893 15.476 13.5807C15.476 13.5807 18.226 12.7113 24.4267 16.9487C27.0814 16.2304 29.8192 15.8651 32.5693 15.862C35.3193 15.862 38.1227 16.2427 40.7113 16.9487C46.9127 12.7113 49.6627 13.5807 49.6627 13.5807C51.4427 18.0893 50.3093 21.458 49.986 22.2727C52.0893 24.554 53.3293 27.4873 53.3293 31.0727C53.3293 43.676 45.7267 46.446 38.4467 47.2613C39.6333 48.2933 40.6573 50.2487 40.6573 53.3453C40.6573 57.7453 40.604 61.2767 40.604 62.3627C40.604 63.232 41.1973 64.2647 42.8147 63.9387C55.756 59.592 65.0847 47.3153 65.0847 32.8113C65.138 14.6667 50.5253 0 32.5693 0Z" fill="white"/>
</g>
<defs>
<clipPath id="clip0_10_13">
<rect width="65.28" height="64" fill="white"/>
</clipPath>
</defs>
</svg>
