<svg width="64" height="64" viewBox="0 0 64 64" fill="none" xmlns="http://www.w3.org/2000/svg">
<g clip-path="url(#clip0_10_7)">
<path fill-rule="evenodd" clip-rule="evenodd" d="M64 32C64 49.6731 49.6731 64 32 64C14.3269 64 0 49.6731 0 32C0 14.3269 14.3269 0 32 0C49.6731 0 64 14.3269 64 32ZM33.1467 23.6238C30.0342 24.9184 23.8137 27.5979 14.485 31.6622C12.9702 32.2646 12.1767 32.8539 12.1044 33.4302C11.9823 34.404 13.2019 34.7875 14.8626 35.3097C15.0885 35.3807 15.3225 35.4543 15.5625 35.5323C17.1963 36.0634 19.3942 36.6848 20.5367 36.7094C21.5732 36.7318 22.7299 36.3046 24.007 35.4276C32.7231 29.544 37.2223 26.5702 37.5048 26.5061C37.7041 26.4608 37.9802 26.404 38.1673 26.5703C38.3545 26.7366 38.3361 27.0515 38.3162 27.136C38.1954 27.6511 33.4083 32.1016 30.931 34.4048C30.1587 35.1228 29.6108 35.6321 29.4988 35.7484C29.248 36.0089 28.9923 36.2554 28.7466 36.4923C27.2287 37.9556 26.0904 39.0529 28.8096 40.8448C30.1163 41.7059 31.162 42.418 32.2051 43.1284C33.3444 43.9042 34.4807 44.6781 35.9509 45.6418C36.3255 45.8873 36.6832 46.1424 37.0317 46.3908C38.3575 47.336 39.5486 48.1851 41.0202 48.0497C41.8753 47.971 42.7585 47.167 43.2071 44.769C44.2672 39.1017 46.351 26.8226 46.8326 21.7626C46.8747 21.3193 46.8217 20.7519 46.779 20.5029C46.7364 20.2538 46.6474 19.899 46.3236 19.6363C45.9402 19.3252 45.3483 19.2596 45.0836 19.2642C43.88 19.2854 42.0334 19.9275 33.1467 23.6238Z" fill="white"/>
</g>
<defs>
<clipPath id="clip0_10_7">
<rect width="64" height="64" fill="white"/>
</clipPath>
</defs>
</svg>
